<svg id="svg5" width="40" height="40" version="1.1" viewBox="0 0 10.583336 10.583336" xmlns="http://www.w3.org/2000/svg"><g id="palette"><path id="segment1" d="m0.70900064 2.6458347a5.2916663 5.2916663 0 0 0 0 5.2916666l2.2913331-1.3229167a2.6458332 2.6458332 0 0 1-0.3545004-1.3229166 2.6458332 2.6458332 0 0 1 0.3545004-1.3229166z"/><path id="segment2" d="m5.2917054 2.37e-5a5.2916663 5.2916663 0 0 0-4.5827178 2.6458334l2.2913461 1.3228943a2.6458332 2.6458332 0 0 1 0.9684292-0.9684647 2.6458332 2.6458332 0 0 1 1.3229296-0.3544519z"/><path id="segment3" d="m9.874423 2.6458568a5.2916663 5.2916663 0 0 0-4.5827176-2.6458331l1.3e-5 2.6458111a2.6458332 2.6458332 0 0 1 1.3229297 0.354452 2.6458332 2.6458332 0 0 1 0.9684289 0.9684643z"/><path id="segment4" d="m9.87441 7.937501a5.2916663 5.2916663 0 0 0 0-5.2916667l-2.291333 1.3229168a2.6458332 2.6458332 0 0 1 0.3545 1.3229169 2.6458332 2.6458332 0 0 1-0.3545 1.3229163z"/><path id="segment5" d="m5.2917051 10.583312a5.2916663 5.2916663 0 0 0 4.5827179-2.6458334l-2.291346-1.3228943a2.6458332 2.6458332 0 0 1-0.96843 0.9684646 2.6458332 2.6458332 0 0 1-1.322929 0.354452z"/><path id="segment6" d="m0.70901372 7.9374786a5.2916663 5.2916663 0 0 0 4.5827173 2.6458334l-1.3e-5 -2.6458111a2.6458332 2.6458332 0 0 1-1.3229297-0.3544523 2.6458332 2.6458332 0 0 1-0.9684289-0.9684641z"/></g></svg>
