

<svg
 width="40"
 height="40"
 viewBox="0 0 40 40"
 version="1.1"
 id="svg5" xmlns="http://www.w3.org/2000/svg"
 xmlns:svg="http://www.w3.org/2000/svg"><g
 id="palette">
<path
 id="segment1"
 d="M 2.6796875 10 A 20 20 0 0 0 2.6796875 30 L 11.359375 24.988281 A 10 10 0 0 1 10 20 A 10 10 0 0 1 11.359375 15.011719 L 2.6796875 10 z "/><path
 id="segment2"
 d="M 20 0 A 20 20 0 0 0 2.6796875 10 L 11.359375 15.011719 A 10 10 0 0 1 20 10 L 20 0 z "/>
<path
 id="segment3"
 d="M 20 0 L 20 10 A 10 10 0 0 1 28.658203 15.001953 L 37.320312 10 A 20 20 0 0 0 20 0 z "/>
<path
  id="segment4"
 d="M 37.320312 10 L 28.658203 15.001953 A 10 10 0 0 1 30 20 A 10 10 0 0 1 28.640625 24.988281 L 37.320312 30 A -20 -20 0 0 0 37.320312 10 z "/>
<path
 id="segment5" d="M 28.640625 24.988281 A 10 10 0 0 1 20 30 L 20 40 A 20 20 0 0 0 37.320312 30 L 28.640625 24.988281 z "/><path
 id="segment6"
 d="M 11.359375 24.988281 L 2.6796875 30 A 20 20 0 0 0 20 40 L 20 30 A 10 10 0 0 1 11.359375 24.988281 z "/>
</g>
</svg>
